<?xml version="1.0" encoding="UTF-8"?>
<mxfile host="app.diagrams.net" modified="2025-07-08T12:30:00.000Z" agent="EnhancedDrawioGenerator" etag="kosyanchuk_v2" version="24.6.4" type="device" pages="9">
  <diagram id="usecase" name="Діаграма прецедентів системи ТехноСвіт">
    <mxGraphModel dx="1422" dy="827" grid="1" gridSize="10" guides="1" tooltips="1" connect="1" arrows="1" fold="1" page="1" pageScale="1" pageWidth="1169" pageHeight="827" math="0" shadow="0">
      <root>
        <mxCell id="0"/>
        <mxCell id="1" parent="0"/>
        <mxCell id="id_2" value="Відвідувач" style="shape=umlActor;verticalLabelPosition=bottom;verticalAlign=top;html=1;outlineConnect=0;fillColor=#dae8fc;strokeColor=#6c8ebf;" vertex="1" parent="1">
          <mxGeometry x="50" y="150" width="30" height="60" as="geometry"/>
        </mxCell>
        <mxCell id="id_3" value="Зареєстрований\nкористувач" style="shape=umlActor;verticalLabelPosition=bottom;verticalAlign=top;html=1;outlineConnect=0;fillColor=#dae8fc;strokeColor=#6c8ebf;" vertex="1" parent="1">
          <mxGeometry x="50" y="300" width="30" height="60" as="geometry"/>
        </mxCell>
        <mxCell id="id_4" value="Адміністратор" style="shape=umlActor;verticalLabelPosition=bottom;verticalAlign=top;html=1;outlineConnect=0;fillColor=#dae8fc;strokeColor=#6c8ebf;" vertex="1" parent="1">
          <mxGeometry x="50" y="450" width="30" height="60" as="geometry"/>
        </mxCell>
        <mxCell id="id_5" value="Перегляд каталогу" style="ellipse;whiteSpace=wrap;html=1;fillColor=#fff2cc;strokeColor=#d6b656;" vertex="1" parent="1">
          <mxGeometry x="200" y="100" width="120" height="60" as="geometry"/>
        </mxCell>
        <mxCell id="id_6" value="Пошук товарів" style="ellipse;whiteSpace=wrap;html=1;fillColor=#fff2cc;strokeColor=#d6b656;" vertex="1" parent="1">
          <mxGeometry x="200" y="180" width="120" height="60" as="geometry"/>
        </mxCell>
        <mxCell id="id_7" value="Фільтрація товарів" style="ellipse;whiteSpace=wrap;html=1;fillColor=#fff2cc;strokeColor=#d6b656;" vertex="1" parent="1">
          <mxGeometry x="200" y="260" width="120" height="60" as="geometry"/>
        </mxCell>
        <mxCell id="id_8" value="Реєстрація" style="ellipse;whiteSpace=wrap;html=1;fillColor=#fff2cc;strokeColor=#d6b656;" vertex="1" parent="1">
          <mxGeometry x="380" y="180" width="120" height="60" as="geometry"/>
        </mxCell>
        <mxCell id="id_9" value="Авторизація" style="ellipse;whiteSpace=wrap;html=1;fillColor=#fff2cc;strokeColor=#d6b656;" vertex="1" parent="1">
          <mxGeometry x="380" y="260" width="120" height="60" as="geometry"/>
        </mxCell>
        <mxCell id="id_10" value="Додавання в кошик" style="ellipse;whiteSpace=wrap;html=1;fillColor=#fff2cc;strokeColor=#d6b656;" vertex="1" parent="1">
          <mxGeometry x="380" y="340" width="120" height="60" as="geometry"/>
        </mxCell>
        <mxCell id="id_11" value="Оформлення\nзамовлення" style="ellipse;whiteSpace=wrap;html=1;fillColor=#fff2cc;strokeColor=#d6b656;" vertex="1" parent="1">
          <mxGeometry x="560" y="260" width="120" height="60" as="geometry"/>
        </mxCell>
        <mxCell id="id_12" value="Історія замовлень" style="ellipse;whiteSpace=wrap;html=1;fillColor=#fff2cc;strokeColor=#d6b656;" vertex="1" parent="1">
          <mxGeometry x="560" y="340" width="120" height="60" as="geometry"/>
        </mxCell>
        <mxCell id="id_13" value="Управління\nтоварами" style="ellipse;whiteSpace=wrap;html=1;fillColor=#fff2cc;strokeColor=#d6b656;" vertex="1" parent="1">
          <mxGeometry x="200" y="420" width="120" height="60" as="geometry"/>
        </mxCell>
        <mxCell id="id_14" value="Управління\nкатегоріями" style="ellipse;whiteSpace=wrap;html=1;fillColor=#fff2cc;strokeColor=#d6b656;" vertex="1" parent="1">
          <mxGeometry x="200" y="500" width="120" height="60" as="geometry"/>
        </mxCell>
        <mxCell id="id_15" value="Управління\nзамовленнями" style="ellipse;whiteSpace=wrap;html=1;fillColor=#fff2cc;strokeColor=#d6b656;" vertex="1" parent="1">
          <mxGeometry x="380" y="420" width="120" height="60" as="geometry"/>
        </mxCell>
        <mxCell id="id_16" value="" style="endArrow=none;html=1;rounded=0;" edge="1" parent="1" source="id_2" target="id_5">
          <mxGeometry relative="1" as="geometry"/>
        </mxCell>
        <mxCell id="id_17" value="" style="endArrow=none;html=1;rounded=0;" edge="1" parent="1" source="id_2" target="id_6">
          <mxGeometry relative="1" as="geometry"/>
        </mxCell>
        <mxCell id="id_18" value="" style="endArrow=none;html=1;rounded=0;" edge="1" parent="1" source="id_2" target="id_7">
          <mxGeometry relative="1" as="geometry"/>
        </mxCell>
        <mxCell id="id_19" value="" style="endArrow=none;html=1;rounded=0;" edge="1" parent="1" source="id_2" target="id_8">
          <mxGeometry relative="1" as="geometry"/>
        </mxCell>
        <mxCell id="id_20" value="" style="endArrow=none;html=1;rounded=0;" edge="1" parent="1" source="id_3" target="id_9">
          <mxGeometry relative="1" as="geometry"/>
        </mxCell>
        <mxCell id="id_21" value="" style="endArrow=none;html=1;rounded=0;" edge="1" parent="1" source="id_3" target="id_10">
          <mxGeometry relative="1" as="geometry"/>
        </mxCell>
        <mxCell id="id_22" value="" style="endArrow=none;html=1;rounded=0;" edge="1" parent="1" source="id_3" target="id_11">
          <mxGeometry relative="1" as="geometry"/>
        </mxCell>
        <mxCell id="id_23" value="" style="endArrow=none;html=1;rounded=0;" edge="1" parent="1" source="id_3" target="id_12">
          <mxGeometry relative="1" as="geometry"/>
        </mxCell>
        <mxCell id="id_24" value="" style="endArrow=none;html=1;rounded=0;" edge="1" parent="1" source="id_4" target="id_13">
          <mxGeometry relative="1" as="geometry"/>
        </mxCell>
        <mxCell id="id_25" value="" style="endArrow=none;html=1;rounded=0;" edge="1" parent="1" source="id_4" target="id_14">
          <mxGeometry relative="1" as="geometry"/>
        </mxCell>
        <mxCell id="id_26" value="" style="endArrow=none;html=1;rounded=0;" edge="1" parent="1" source="id_4" target="id_15">
          <mxGeometry relative="1" as="geometry"/>
        </mxCell>
        <mxCell id="id_27" value="&amp;lt;&amp;lt;extends&amp;gt;&amp;gt;" style="endArrow=open;dashed=1;html=1;dashPattern=1 3;strokeWidth=2;" edge="1" parent="1" source="id_3" target="id_2">
          <mxGeometry width="50" height="50" relative="1" as="geometry">
            <mxPoint x="100" y="250" as="sourcePoint"/>
            <mxPoint x="100" y="200" as="targetPoint"/>
          </mxGeometry>
        </mxCell>

      </root>
    </mxGraphModel>
  </diagram>
  <diagram id="er" name="ER-діаграма бази даних системи">
    <mxGraphModel dx="1422" dy="827" grid="1" gridSize="10" guides="1" tooltips="1" connect="1" arrows="1" fold="1" page="1" pageScale="1" pageWidth="1169" pageHeight="827" math="0" shadow="0">
      <root>
        <mxCell id="0"/>
        <mxCell id="1" parent="0"/>
        <mxCell id="id_2" value="Users" style="swimlane;fontStyle=1;childLayout=stackLayout;horizontal=1;startSize=26;fillColor=#dae8fc;strokeColor=#6c8ebf;" vertex="1" parent="1">
          <mxGeometry x="50" y="50" width="200" height="208" as="geometry"/>
        </mxCell>
        <mxCell id="id_3" value="id (PK, INT)" style="text;strokeColor=none;fillColor=none;align=left;verticalAlign=top;spacingLeft=4;spacingRight=4;overflow=hidden;rotatable=0;points=[[0,0.5],[1,0.5]];portConstraint=eastwest;fontStyle=4;" vertex="1" parent="id_2">
          <mxGeometry y="26" width="200" height="26" as="geometry"/>
        </mxCell>
        <mxCell id="id_4" value="name (VARCHAR)" style="text;strokeColor=none;fillColor=none;align=left;verticalAlign=top;spacingLeft=4;spacingRight=4;overflow=hidden;rotatable=0;points=[[0,0.5],[1,0.5]];portConstraint=eastwest;" vertex="1" parent="id_2">
          <mxGeometry y="52" width="200" height="26" as="geometry"/>
        </mxCell>
        <mxCell id="id_5" value="email (VARCHAR, UNIQUE)" style="text;strokeColor=none;fillColor=none;align=left;verticalAlign=top;spacingLeft=4;spacingRight=4;overflow=hidden;rotatable=0;points=[[0,0.5],[1,0.5]];portConstraint=eastwest;" vertex="1" parent="id_2">
          <mxGeometry y="78" width="200" height="26" as="geometry"/>
        </mxCell>
        <mxCell id="id_6" value="password (VARCHAR)" style="text;strokeColor=none;fillColor=none;align=left;verticalAlign=top;spacingLeft=4;spacingRight=4;overflow=hidden;rotatable=0;points=[[0,0.5],[1,0.5]];portConstraint=eastwest;" vertex="1" parent="id_2">
          <mxGeometry y="104" width="200" height="26" as="geometry"/>
        </mxCell>
        <mxCell id="id_7" value="is_admin (BOOLEAN)" style="text;strokeColor=none;fillColor=none;align=left;verticalAlign=top;spacingLeft=4;spacingRight=4;overflow=hidden;rotatable=0;points=[[0,0.5],[1,0.5]];portConstraint=eastwest;" vertex="1" parent="id_2">
          <mxGeometry y="130" width="200" height="26" as="geometry"/>
        </mxCell>
        <mxCell id="id_8" value="created_at (TIMESTAMP)" style="text;strokeColor=none;fillColor=none;align=left;verticalAlign=top;spacingLeft=4;spacingRight=4;overflow=hidden;rotatable=0;points=[[0,0.5],[1,0.5]];portConstraint=eastwest;" vertex="1" parent="id_2">
          <mxGeometry y="156" width="200" height="26" as="geometry"/>
        </mxCell>
        <mxCell id="id_9" value="updated_at (TIMESTAMP)" style="text;strokeColor=none;fillColor=none;align=left;verticalAlign=top;spacingLeft=4;spacingRight=4;overflow=hidden;rotatable=0;points=[[0,0.5],[1,0.5]];portConstraint=eastwest;" vertex="1" parent="id_2">
          <mxGeometry y="182" width="200" height="26" as="geometry"/>
        </mxCell>
        <mxCell id="id_10" value="Categories" style="swimlane;fontStyle=1;childLayout=stackLayout;horizontal=1;startSize=26;fillColor=#d5e8d4;strokeColor=#82b366;" vertex="1" parent="1">
          <mxGeometry x="300" y="50" width="200" height="234" as="geometry"/>
        </mxCell>
        <mxCell id="id_11" value="id (PK, INT)" style="text;strokeColor=none;fillColor=none;align=left;verticalAlign=top;spacingLeft=4;spacingRight=4;overflow=hidden;rotatable=0;points=[[0,0.5],[1,0.5]];portConstraint=eastwest;fontStyle=4;" vertex="1" parent="id_10">
          <mxGeometry y="26" width="200" height="26" as="geometry"/>
        </mxCell>
        <mxCell id="id_12" value="name_uk (VARCHAR)" style="text;strokeColor=none;fillColor=none;align=left;verticalAlign=top;spacingLeft=4;spacingRight=4;overflow=hidden;rotatable=0;points=[[0,0.5],[1,0.5]];portConstraint=eastwest;" vertex="1" parent="id_10">
          <mxGeometry y="52" width="200" height="26" as="geometry"/>
        </mxCell>
        <mxCell id="id_13" value="name_en (VARCHAR)" style="text;strokeColor=none;fillColor=none;align=left;verticalAlign=top;spacingLeft=4;spacingRight=4;overflow=hidden;rotatable=0;points=[[0,0.5],[1,0.5]];portConstraint=eastwest;" vertex="1" parent="id_10">
          <mxGeometry y="78" width="200" height="26" as="geometry"/>
        </mxCell>
        <mxCell id="id_14" value="slug (VARCHAR, UNIQUE)" style="text;strokeColor=none;fillColor=none;align=left;verticalAlign=top;spacingLeft=4;spacingRight=4;overflow=hidden;rotatable=0;points=[[0,0.5],[1,0.5]];portConstraint=eastwest;" vertex="1" parent="id_10">
          <mxGeometry y="104" width="200" height="26" as="geometry"/>
        </mxCell>
        <mxCell id="id_15" value="description_uk (TEXT)" style="text;strokeColor=none;fillColor=none;align=left;verticalAlign=top;spacingLeft=4;spacingRight=4;overflow=hidden;rotatable=0;points=[[0,0.5],[1,0.5]];portConstraint=eastwest;" vertex="1" parent="id_10">
          <mxGeometry y="130" width="200" height="26" as="geometry"/>
        </mxCell>
        <mxCell id="id_16" value="description_en (TEXT)" style="text;strokeColor=none;fillColor=none;align=left;verticalAlign=top;spacingLeft=4;spacingRight=4;overflow=hidden;rotatable=0;points=[[0,0.5],[1,0.5]];portConstraint=eastwest;" vertex="1" parent="id_10">
          <mxGeometry y="156" width="200" height="26" as="geometry"/>
        </mxCell>
        <mxCell id="id_17" value="is_active (BOOLEAN)" style="text;strokeColor=none;fillColor=none;align=left;verticalAlign=top;spacingLeft=4;spacingRight=4;overflow=hidden;rotatable=0;points=[[0,0.5],[1,0.5]];portConstraint=eastwest;" vertex="1" parent="id_10">
          <mxGeometry y="182" width="200" height="26" as="geometry"/>
        </mxCell>
        <mxCell id="id_18" value="created_at (TIMESTAMP)" style="text;strokeColor=none;fillColor=none;align=left;verticalAlign=top;spacingLeft=4;spacingRight=4;overflow=hidden;rotatable=0;points=[[0,0.5],[1,0.5]];portConstraint=eastwest;" vertex="1" parent="id_10">
          <mxGeometry y="208" width="200" height="26" as="geometry"/>
        </mxCell>
        <mxCell id="id_19" value="updated_at (TIMESTAMP)" style="text;strokeColor=none;fillColor=none;align=left;verticalAlign=top;spacingLeft=4;spacingRight=4;overflow=hidden;rotatable=0;points=[[0,0.5],[1,0.5]];portConstraint=eastwest;" vertex="1" parent="id_10">
          <mxGeometry y="234" width="200" height="26" as="geometry"/>
        </mxCell>
        <mxCell id="id_20" value="Products" style="swimlane;fontStyle=1;childLayout=stackLayout;horizontal=1;startSize=26;fillColor=#ffe6cc;strokeColor=#d79b00;" vertex="1" parent="1">
          <mxGeometry x="550" y="50" width="200" height="260" as="geometry"/>
        </mxCell>
        <mxCell id="id_21" value="id (PK, INT)" style="text;strokeColor=none;fillColor=none;align=left;verticalAlign=top;spacingLeft=4;spacingRight=4;overflow=hidden;rotatable=0;points=[[0,0.5],[1,0.5]];portConstraint=eastwest;fontStyle=4;" vertex="1" parent="id_20">
          <mxGeometry y="26" width="200" height="26" as="geometry"/>
        </mxCell>
        <mxCell id="id_22" value="category_id (FK, INT)" style="text;strokeColor=none;fillColor=none;align=left;verticalAlign=top;spacingLeft=4;spacingRight=4;overflow=hidden;rotatable=0;points=[[0,0.5],[1,0.5]];portConstraint=eastwest;fontStyle=2;" vertex="1" parent="id_20">
          <mxGeometry y="52" width="200" height="26" as="geometry"/>
        </mxCell>
        <mxCell id="id_23" value="name_uk (VARCHAR)" style="text;strokeColor=none;fillColor=none;align=left;verticalAlign=top;spacingLeft=4;spacingRight=4;overflow=hidden;rotatable=0;points=[[0,0.5],[1,0.5]];portConstraint=eastwest;" vertex="1" parent="id_20">
          <mxGeometry y="78" width="200" height="26" as="geometry"/>
        </mxCell>
        <mxCell id="id_24" value="name_en (VARCHAR)" style="text;strokeColor=none;fillColor=none;align=left;verticalAlign=top;spacingLeft=4;spacingRight=4;overflow=hidden;rotatable=0;points=[[0,0.5],[1,0.5]];portConstraint=eastwest;" vertex="1" parent="id_20">
          <mxGeometry y="104" width="200" height="26" as="geometry"/>
        </mxCell>
        <mxCell id="id_25" value="price (DECIMAL)" style="text;strokeColor=none;fillColor=none;align=left;verticalAlign=top;spacingLeft=4;spacingRight=4;overflow=hidden;rotatable=0;points=[[0,0.5],[1,0.5]];portConstraint=eastwest;" vertex="1" parent="id_20">
          <mxGeometry y="130" width="200" height="26" as="geometry"/>
        </mxCell>
        <mxCell id="id_26" value="quantity (INT)" style="text;strokeColor=none;fillColor=none;align=left;verticalAlign=top;spacingLeft=4;spacingRight=4;overflow=hidden;rotatable=0;points=[[0,0.5],[1,0.5]];portConstraint=eastwest;" vertex="1" parent="id_20">
          <mxGeometry y="156" width="200" height="26" as="geometry"/>
        </mxCell>
        <mxCell id="id_27" value="images (JSON)" style="text;strokeColor=none;fillColor=none;align=left;verticalAlign=top;spacingLeft=4;spacingRight=4;overflow=hidden;rotatable=0;points=[[0,0.5],[1,0.5]];portConstraint=eastwest;" vertex="1" parent="id_20">
          <mxGeometry y="182" width="200" height="26" as="geometry"/>
        </mxCell>
        <mxCell id="id_28" value="is_active (BOOLEAN)" style="text;strokeColor=none;fillColor=none;align=left;verticalAlign=top;spacingLeft=4;spacingRight=4;overflow=hidden;rotatable=0;points=[[0,0.5],[1,0.5]];portConstraint=eastwest;" vertex="1" parent="id_20">
          <mxGeometry y="208" width="200" height="26" as="geometry"/>
        </mxCell>
        <mxCell id="id_29" value="created_at (TIMESTAMP)" style="text;strokeColor=none;fillColor=none;align=left;verticalAlign=top;spacingLeft=4;spacingRight=4;overflow=hidden;rotatable=0;points=[[0,0.5],[1,0.5]];portConstraint=eastwest;" vertex="1" parent="id_20">
          <mxGeometry y="234" width="200" height="26" as="geometry"/>
        </mxCell>
        <mxCell id="id_30" value="updated_at (TIMESTAMP)" style="text;strokeColor=none;fillColor=none;align=left;verticalAlign=top;spacingLeft=4;spacingRight=4;overflow=hidden;rotatable=0;points=[[0,0.5],[1,0.5]];portConstraint=eastwest;" vertex="1" parent="id_20">
          <mxGeometry y="260" width="200" height="26" as="geometry"/>
        </mxCell>
        <mxCell id="id_31" value="1" style="endArrow=none;html=1;rounded=0;" edge="1" parent="1" source="id_10" target="id_20">
          <mxGeometry width="50" height="50" relative="1" as="geometry">
            <mxPoint x="500" y="150" as="sourcePoint"/>
            <mxPoint x="550" y="150" as="targetPoint"/>
          </mxGeometry>
        </mxCell>
        <mxCell id="id_32" value="M" style="endArrow=none;html=1;rounded=0;" edge="1" parent="1">
          <mxGeometry width="50" height="50" relative="1" as="geometry">
            <mxPoint x="530" y="150" as="sourcePoint"/>
            <mxPoint x="550" y="150" as="targetPoint"/>
          </mxGeometry>
        </mxCell>

      </root>
    </mxGraphModel>
  </diagram>
  <diagram id="class" name="Діаграма класів системи ТехноСвіт">
    <mxGraphModel dx="1422" dy="827" grid="1" gridSize="10" guides="1" tooltips="1" connect="1" arrows="1" fold="1" page="1" pageScale="1" pageWidth="1169" pageHeight="827" math="0" shadow="0">
      <root>
        <mxCell id="0"/>
        <mxCell id="1" parent="0"/>
        <mxCell id="id_2" value="User" style="swimlane;fontStyle=1;align=center;verticalAlign=top;childLayout=stackLayout;horizontal=1;startSize=26;horizontalStack=0;resizeParent=1;resizeParentMax=0;resizeLast=0;collapsible=1;marginBottom=0;fillColor=#dae8fc;strokeColor=#6c8ebf;" vertex="1" parent="1">
          <mxGeometry x="50" y="50" width="200" height="246" as="geometry"/>
        </mxCell>
        <mxCell id="id_3" value="- id: int" style="text;strokeColor=none;fillColor=none;align=left;verticalAlign=top;spacingLeft=4;spacingRight=4;overflow=hidden;rotatable=0;points=[[0,0.5],[1,0.5]];portConstraint=eastwest;" vertex="1" parent="id_2">
          <mxGeometry y="26" width="200" height="20" as="geometry"/>
        </mxCell>
        <mxCell id="id_4" value="- name: string" style="text;strokeColor=none;fillColor=none;align=left;verticalAlign=top;spacingLeft=4;spacingRight=4;overflow=hidden;rotatable=0;points=[[0,0.5],[1,0.5]];portConstraint=eastwest;" vertex="1" parent="id_2">
          <mxGeometry y="46" width="200" height="20" as="geometry"/>
        </mxCell>
        <mxCell id="id_5" value="- email: string" style="text;strokeColor=none;fillColor=none;align=left;verticalAlign=top;spacingLeft=4;spacingRight=4;overflow=hidden;rotatable=0;points=[[0,0.5],[1,0.5]];portConstraint=eastwest;" vertex="1" parent="id_2">
          <mxGeometry y="66" width="200" height="20" as="geometry"/>
        </mxCell>
        <mxCell id="id_6" value="- password: string" style="text;strokeColor=none;fillColor=none;align=left;verticalAlign=top;spacingLeft=4;spacingRight=4;overflow=hidden;rotatable=0;points=[[0,0.5],[1,0.5]];portConstraint=eastwest;" vertex="1" parent="id_2">
          <mxGeometry y="86" width="200" height="20" as="geometry"/>
        </mxCell>
        <mxCell id="id_7" value="- is_admin: boolean" style="text;strokeColor=none;fillColor=none;align=left;verticalAlign=top;spacingLeft=4;spacingRight=4;overflow=hidden;rotatable=0;points=[[0,0.5],[1,0.5]];portConstraint=eastwest;" vertex="1" parent="id_2">
          <mxGeometry y="106" width="200" height="20" as="geometry"/>
        </mxCell>
        <mxCell id="id_8" value="" style="line;strokeWidth=1;fillColor=none;align=left;verticalAlign=middle;spacingTop=-1;spacingLeft=3;spacingRight=3;rotatable=0;labelPosition=right;points=[];portConstraint=eastwest;" vertex="1" parent="id_2">
          <mxGeometry y="126" width="200" height="8" as="geometry"/>
        </mxCell>
        <mxCell id="id_9" value="+ register(): boolean" style="text;strokeColor=none;fillColor=none;align=left;verticalAlign=top;spacingLeft=4;spacingRight=4;overflow=hidden;rotatable=0;points=[[0,0.5],[1,0.5]];portConstraint=eastwest;" vertex="1" parent="id_2">
          <mxGeometry y="134" width="200" height="20" as="geometry"/>
        </mxCell>
        <mxCell id="id_10" value="+ login(): boolean" style="text;strokeColor=none;fillColor=none;align=left;verticalAlign=top;spacingLeft=4;spacingRight=4;overflow=hidden;rotatable=0;points=[[0,0.5],[1,0.5]];portConstraint=eastwest;" vertex="1" parent="id_2">
          <mxGeometry y="154" width="200" height="20" as="geometry"/>
        </mxCell>
        <mxCell id="id_11" value="+ logout(): void" style="text;strokeColor=none;fillColor=none;align=left;verticalAlign=top;spacingLeft=4;spacingRight=4;overflow=hidden;rotatable=0;points=[[0,0.5],[1,0.5]];portConstraint=eastwest;" vertex="1" parent="id_2">
          <mxGeometry y="174" width="200" height="20" as="geometry"/>
        </mxCell>
        <mxCell id="id_12" value="+ updateProfile(): boolean" style="text;strokeColor=none;fillColor=none;align=left;verticalAlign=top;spacingLeft=4;spacingRight=4;overflow=hidden;rotatable=0;points=[[0,0.5],[1,0.5]];portConstraint=eastwest;" vertex="1" parent="id_2">
          <mxGeometry y="194" width="200" height="20" as="geometry"/>
        </mxCell>
        <mxCell id="id_13" value="+ getOrders(): Order[]" style="text;strokeColor=none;fillColor=none;align=left;verticalAlign=top;spacingLeft=4;spacingRight=4;overflow=hidden;rotatable=0;points=[[0,0.5],[1,0.5]];portConstraint=eastwest;" vertex="1" parent="id_2">
          <mxGeometry y="214" width="200" height="20" as="geometry"/>
        </mxCell>
        <mxCell id="id_14" value="Product" style="swimlane;fontStyle=1;align=center;verticalAlign=top;childLayout=stackLayout;horizontal=1;startSize=26;horizontalStack=0;resizeParent=1;resizeParentMax=0;resizeLast=0;collapsible=1;marginBottom=0;fillColor=#ffe6cc;strokeColor=#d79b00;" vertex="1" parent="1">
          <mxGeometry x="300" y="50" width="200" height="286" as="geometry"/>
        </mxCell>
        <mxCell id="id_15" value="- id: int" style="text;strokeColor=none;fillColor=none;align=left;verticalAlign=top;spacingLeft=4;spacingRight=4;overflow=hidden;rotatable=0;points=[[0,0.5],[1,0.5]];portConstraint=eastwest;" vertex="1" parent="id_14">
          <mxGeometry y="26" width="200" height="20" as="geometry"/>
        </mxCell>
        <mxCell id="id_16" value="- category_id: int" style="text;strokeColor=none;fillColor=none;align=left;verticalAlign=top;spacingLeft=4;spacingRight=4;overflow=hidden;rotatable=0;points=[[0,0.5],[1,0.5]];portConstraint=eastwest;" vertex="1" parent="id_14">
          <mxGeometry y="46" width="200" height="20" as="geometry"/>
        </mxCell>
        <mxCell id="id_17" value="- name_uk: string" style="text;strokeColor=none;fillColor=none;align=left;verticalAlign=top;spacingLeft=4;spacingRight=4;overflow=hidden;rotatable=0;points=[[0,0.5],[1,0.5]];portConstraint=eastwest;" vertex="1" parent="id_14">
          <mxGeometry y="66" width="200" height="20" as="geometry"/>
        </mxCell>
        <mxCell id="id_18" value="- price: decimal" style="text;strokeColor=none;fillColor=none;align=left;verticalAlign=top;spacingLeft=4;spacingRight=4;overflow=hidden;rotatable=0;points=[[0,0.5],[1,0.5]];portConstraint=eastwest;" vertex="1" parent="id_14">
          <mxGeometry y="86" width="200" height="20" as="geometry"/>
        </mxCell>
        <mxCell id="id_19" value="- quantity: int" style="text;strokeColor=none;fillColor=none;align=left;verticalAlign=top;spacingLeft=4;spacingRight=4;overflow=hidden;rotatable=0;points=[[0,0.5],[1,0.5]];portConstraint=eastwest;" vertex="1" parent="id_14">
          <mxGeometry y="106" width="200" height="20" as="geometry"/>
        </mxCell>
        <mxCell id="id_20" value="- images: array" style="text;strokeColor=none;fillColor=none;align=left;verticalAlign=top;spacingLeft=4;spacingRight=4;overflow=hidden;rotatable=0;points=[[0,0.5],[1,0.5]];portConstraint=eastwest;" vertex="1" parent="id_14">
          <mxGeometry y="126" width="200" height="20" as="geometry"/>
        </mxCell>
        <mxCell id="id_21" value="" style="line;strokeWidth=1;fillColor=none;align=left;verticalAlign=middle;spacingTop=-1;spacingLeft=3;spacingRight=3;rotatable=0;labelPosition=right;points=[];portConstraint=eastwest;" vertex="1" parent="id_14">
          <mxGeometry y="146" width="200" height="8" as="geometry"/>
        </mxCell>
        <mxCell id="id_22" value="+ create(): boolean" style="text;strokeColor=none;fillColor=none;align=left;verticalAlign=top;spacingLeft=4;spacingRight=4;overflow=hidden;rotatable=0;points=[[0,0.5],[1,0.5]];portConstraint=eastwest;" vertex="1" parent="id_14">
          <mxGeometry y="154" width="200" height="20" as="geometry"/>
        </mxCell>
        <mxCell id="id_23" value="+ update(): boolean" style="text;strokeColor=none;fillColor=none;align=left;verticalAlign=top;spacingLeft=4;spacingRight=4;overflow=hidden;rotatable=0;points=[[0,0.5],[1,0.5]];portConstraint=eastwest;" vertex="1" parent="id_14">
          <mxGeometry y="174" width="200" height="20" as="geometry"/>
        </mxCell>
        <mxCell id="id_24" value="+ delete(): boolean" style="text;strokeColor=none;fillColor=none;align=left;verticalAlign=top;spacingLeft=4;spacingRight=4;overflow=hidden;rotatable=0;points=[[0,0.5],[1,0.5]];portConstraint=eastwest;" vertex="1" parent="id_14">
          <mxGeometry y="194" width="200" height="20" as="geometry"/>
        </mxCell>
        <mxCell id="id_25" value="+ getCategory(): Category" style="text;strokeColor=none;fillColor=none;align=left;verticalAlign=top;spacingLeft=4;spacingRight=4;overflow=hidden;rotatable=0;points=[[0,0.5],[1,0.5]];portConstraint=eastwest;" vertex="1" parent="id_14">
          <mxGeometry y="214" width="200" height="20" as="geometry"/>
        </mxCell>
        <mxCell id="id_26" value="+ isInStock(): boolean" style="text;strokeColor=none;fillColor=none;align=left;verticalAlign=top;spacingLeft=4;spacingRight=4;overflow=hidden;rotatable=0;points=[[0,0.5],[1,0.5]];portConstraint=eastwest;" vertex="1" parent="id_14">
          <mxGeometry y="234" width="200" height="20" as="geometry"/>
        </mxCell>
        <mxCell id="id_27" value="+ getMainImage(): string" style="text;strokeColor=none;fillColor=none;align=left;verticalAlign=top;spacingLeft=4;spacingRight=4;overflow=hidden;rotatable=0;points=[[0,0.5],[1,0.5]];portConstraint=eastwest;" vertex="1" parent="id_14">
          <mxGeometry y="254" width="200" height="20" as="geometry"/>
        </mxCell>
        <mxCell id="id_28" value="places orders" style="endArrow=open;endFill=1;endSize=12;html=1;rounded=0;" edge="1" parent="1" source="id_2" target="id_14">
          <mxGeometry width="160" relative="1" as="geometry">
            <mxPoint x="250" y="150" as="sourcePoint"/>
            <mxPoint x="300" y="150" as="targetPoint"/>
          </mxGeometry>
        </mxCell>

      </root>
    </mxGraphModel>
  </diagram>
  <diagram id="sequence" name="Діаграма послідовності - Додавання товару в кошик">
    <mxGraphModel dx="1422" dy="827" grid="1" gridSize="10" guides="1" tooltips="1" connect="1" arrows="1" fold="1" page="1" pageScale="1" pageWidth="1169" pageHeight="827" math="0" shadow="0">
      <root>
        <mxCell id="0"/>
        <mxCell id="1" parent="0"/>
        <mxCell id="id_2" value="Користувач" style="shape=umlLifeline;perimeter=lifelinePerimeter;whiteSpace=wrap;html=1;container=1;collapsible=0;recursiveResize=0;outlineConnect=0;fillColor=#dae8fc;strokeColor=#6c8ebf;" vertex="1" parent="1">
          <mxGeometry x="80" y="80" width="100" height="600" as="geometry"/>
        </mxCell>
        <mxCell id="id_3" value="Веб-браузер" style="shape=umlLifeline;perimeter=lifelinePerimeter;whiteSpace=wrap;html=1;container=1;collapsible=0;recursiveResize=0;outlineConnect=0;fillColor=#dae8fc;strokeColor=#6c8ebf;" vertex="1" parent="1">
          <mxGeometry x="230" y="80" width="100" height="600" as="geometry"/>
        </mxCell>
        <mxCell id="id_4" value="CartController" style="shape=umlLifeline;perimeter=lifelinePerimeter;whiteSpace=wrap;html=1;container=1;collapsible=0;recursiveResize=0;outlineConnect=0;fillColor=#dae8fc;strokeColor=#6c8ebf;" vertex="1" parent="1">
          <mxGeometry x="380" y="80" width="100" height="600" as="geometry"/>
        </mxCell>
        <mxCell id="id_5" value="Product Model" style="shape=umlLifeline;perimeter=lifelinePerimeter;whiteSpace=wrap;html=1;container=1;collapsible=0;recursiveResize=0;outlineConnect=0;fillColor=#dae8fc;strokeColor=#6c8ebf;" vertex="1" parent="1">
          <mxGeometry x="530" y="80" width="100" height="600" as="geometry"/>
        </mxCell>
        <mxCell id="id_6" value="База даних" style="shape=umlLifeline;perimeter=lifelinePerimeter;whiteSpace=wrap;html=1;container=1;collapsible=0;recursiveResize=0;outlineConnect=0;fillColor=#dae8fc;strokeColor=#6c8ebf;" vertex="1" parent="1">
          <mxGeometry x="680" y="80" width="100" height="600" as="geometry"/>
        </mxCell>
        <mxCell id="id_7" value="Натискає "Додати в кошик"" style="html=1;verticalAlign=bottom;endArrow=block;rounded=0;" edge="1" parent="1">
          <mxGeometry width="80" relative="1" as="geometry">
            <mxPoint x="130" y="150" as="sourcePoint"/>
            <mxPoint x="280" y="150" as="targetPoint"/>
          </mxGeometry>
        </mxCell>
        <mxCell id="id_8" value="POST /cart/add" style="html=1;verticalAlign=bottom;endArrow=block;rounded=0;" edge="1" parent="1">
          <mxGeometry width="80" relative="1" as="geometry">
            <mxPoint x="280" y="200" as="sourcePoint"/>
            <mxPoint x="430" y="200" as="targetPoint"/>
          </mxGeometry>
        </mxCell>
        <mxCell id="id_9" value="Валідація запиту" style="html=1;verticalAlign=bottom;endArrow=block;rounded=0;" edge="1" parent="1">
          <mxGeometry width="80" relative="1" as="geometry">
            <mxPoint x="430" y="230" as="sourcePoint"/>
            <mxPoint x="430" y="230" as="targetPoint"/>
          </mxGeometry>
        </mxCell>
        <mxCell id="id_10" value="findOrFail(product_id)" style="html=1;verticalAlign=bottom;endArrow=block;rounded=0;" edge="1" parent="1">
          <mxGeometry width="80" relative="1" as="geometry">
            <mxPoint x="430" y="260" as="sourcePoint"/>
            <mxPoint x="580" y="260" as="targetPoint"/>
          </mxGeometry>
        </mxCell>
        <mxCell id="id_11" value="SELECT * FROM products" style="html=1;verticalAlign=bottom;endArrow=block;rounded=0;" edge="1" parent="1">
          <mxGeometry width="80" relative="1" as="geometry">
            <mxPoint x="580" y="290" as="sourcePoint"/>
            <mxPoint x="730" y="290" as="targetPoint"/>
          </mxGeometry>
        </mxCell>
        <mxCell id="id_12" value="Дані про товар" style="html=1;verticalAlign=bottom;endArrow=block;rounded=0;dashed=1;dashPattern=1 3;" edge="1" parent="1">
          <mxGeometry width="80" relative="1" as="geometry">
            <mxPoint x="730" y="320" as="sourcePoint"/>
            <mxPoint x="580" y="320" as="targetPoint"/>
          </mxGeometry>
        </mxCell>
        <mxCell id="id_13" value="Об'єкт Product" style="html=1;verticalAlign=bottom;endArrow=block;rounded=0;dashed=1;dashPattern=1 3;" edge="1" parent="1">
          <mxGeometry width="80" relative="1" as="geometry">
            <mxPoint x="580" y="350" as="sourcePoint"/>
            <mxPoint x="430" y="350" as="targetPoint"/>
          </mxGeometry>
        </mxCell>
        <mxCell id="id_14" value="Перевірка наявності" style="html=1;verticalAlign=bottom;endArrow=block;rounded=0;" edge="1" parent="1">
          <mxGeometry width="80" relative="1" as="geometry">
            <mxPoint x="430" y="380" as="sourcePoint"/>
            <mxPoint x="580" y="380" as="targetPoint"/>
          </mxGeometry>
        </mxCell>
        <mxCell id="id_15" value="JSON response" style="html=1;verticalAlign=bottom;endArrow=block;rounded=0;dashed=1;dashPattern=1 3;" edge="1" parent="1">
          <mxGeometry width="80" relative="1" as="geometry">
            <mxPoint x="430" y="450" as="sourcePoint"/>
            <mxPoint x="280" y="450" as="targetPoint"/>
          </mxGeometry>
        </mxCell>
        <mxCell id="id_16" value="Оновлення UI" style="html=1;verticalAlign=bottom;endArrow=block;rounded=0;" edge="1" parent="1">
          <mxGeometry width="80" relative="1" as="geometry">
            <mxPoint x="280" y="480" as="sourcePoint"/>
            <mxPoint x="130" y="480" as="targetPoint"/>
          </mxGeometry>
        </mxCell>
        <mxCell id="id_17" value="" style="html=1;points=[];perimeter=orthogonalPerimeter;fillColor=#fff2cc;strokeColor=#d6b656;" vertex="1" parent="id_3">
          <mxGeometry x="45" y="120" width="10" height="300" as="geometry"/>
        </mxCell>
        <mxCell id="id_18" value="" style="html=1;points=[];perimeter=orthogonalPerimeter;fillColor=#fff2cc;strokeColor=#d6b656;" vertex="1" parent="id_4">
          <mxGeometry x="45" y="170" width="10" height="300" as="geometry"/>
        </mxCell>
        <mxCell id="id_19" value="" style="html=1;points=[];perimeter=orthogonalPerimeter;fillColor=#fff2cc;strokeColor=#d6b656;" vertex="1" parent="id_5">
          <mxGeometry x="45" y="220" width="10" height="300" as="geometry"/>
        </mxCell>
        <mxCell id="id_20" value="" style="html=1;points=[];perimeter=orthogonalPerimeter;fillColor=#fff2cc;strokeColor=#d6b656;" vertex="1" parent="id_6">
          <mxGeometry x="45" y="270" width="10" height="300" as="geometry"/>
        </mxCell>

      </root>
    </mxGraphModel>
  </diagram>
  <diagram id="bpmn" name="BPMN діаграма - Бізнес-процес управління замовленнями">
    <mxGraphModel dx="1422" dy="827" grid="1" gridSize="10" guides="1" tooltips="1" connect="1" arrows="1" fold="1" page="1" pageScale="1" pageWidth="1169" pageHeight="827" math="0" shadow="0">
      <root>
        <mxCell id="0"/>
        <mxCell id="1" parent="0"/>
        <mxCell id="id_2" value="Початок" style="ellipse;whiteSpace=wrap;html=1;fillColor=#d5e8d4;strokeColor=#82b366;" vertex="1" parent="1">
          <mxGeometry x="50" y="200" width="80" height="40" as="geometry"/>
        </mxCell>
        <mxCell id="id_3" value="Оформлення\nзамовлення" style="rounded=1;whiteSpace=wrap;html=1;fillColor=#ffe6cc;strokeColor=#d79b00;" vertex="1" parent="1">
          <mxGeometry x="180" y="180" width="120" height="60" as="geometry"/>
        </mxCell>
        <mxCell id="id_4" value="Перевірка\nданих" style="rounded=1;whiteSpace=wrap;html=1;fillColor=#ffe6cc;strokeColor=#d79b00;" vertex="1" parent="1">
          <mxGeometry x="320" y="180" width="120" height="60" as="geometry"/>
        </mxCell>
        <mxCell id="id_5" value="Створення\nзамовлення" style="rounded=1;whiteSpace=wrap;html=1;fillColor=#ffe6cc;strokeColor=#d79b00;" vertex="1" parent="1">
          <mxGeometry x="500" y="180" width="120" height="60" as="geometry"/>
        </mxCell>
        <mxCell id="id_6" value="Відправка\nemail" style="rounded=1;whiteSpace=wrap;html=1;fillColor=#ffe6cc;strokeColor=#d79b00;" vertex="1" parent="1">
          <mxGeometry x="640" y="180" width="120" height="60" as="geometry"/>
        </mxCell>
        <mxCell id="id_7" value="Дані\nкоректні?" style="rhombus;whiteSpace=wrap;html=1;fillColor=#fff2cc;strokeColor=#d6b656;" vertex="1" parent="1">
          <mxGeometry x="340" y="300" width="80" height="80" as="geometry"/>
        </mxCell>
        <mxCell id="id_8" value="Повернення\nз помилками" style="rounded=1;whiteSpace=wrap;html=1;fillColor=#f8cecc;strokeColor=#b85450;" vertex="1" parent="1">
          <mxGeometry x="180" y="310" width="120" height="60" as="geometry"/>
        </mxCell>
        <mxCell id="id_9" value="Кінець" style="ellipse;whiteSpace=wrap;html=1;fillColor=#f8cecc;strokeColor=#b85450;" vertex="1" parent="1">
          <mxGeometry x="780" y="200" width="80" height="40" as="geometry"/>
        </mxCell>
        <mxCell id="id_10" value="" style="endArrow=classic;html=1;rounded=0;" edge="1" parent="1" source="id_3" target="id_4">
          <mxGeometry width="50" height="50" relative="1" as="geometry"/>
        </mxCell>
        <mxCell id="id_11" value="" style="endArrow=classic;html=1;rounded=0;" edge="1" parent="1" source="id_4" target="id_7">
          <mxGeometry width="50" height="50" relative="1" as="geometry"/>
        </mxCell>
        <mxCell id="id_12" value="Так" style="endArrow=classic;html=1;rounded=0;" edge="1" parent="1" source="id_7" target="id_5">
          <mxGeometry width="50" height="50" relative="1" as="geometry"/>
        </mxCell>
        <mxCell id="id_13" value="Ні" style="endArrow=classic;html=1;rounded=0;" edge="1" parent="1" source="id_7" target="id_8">
          <mxGeometry width="50" height="50" relative="1" as="geometry"/>
        </mxCell>

      </root>
    </mxGraphModel>
  </diagram>
  <diagram id="dfd" name="DFD - Діаграма потоків даних рівень 0">
    <mxGraphModel dx="1422" dy="827" grid="1" gridSize="10" guides="1" tooltips="1" connect="1" arrows="1" fold="1" page="1" pageScale="1" pageWidth="1169" pageHeight="827" math="0" shadow="0">
      <root>
        <mxCell id="0"/>
        <mxCell id="1" parent="0"/>
        <mxCell id="id_2" value="P1\nСистема\nелектронного\nмагазину" style="ellipse;whiteSpace=wrap;html=1;fillColor=#e1d5e7;strokeColor=#9673a6;" vertex="1" parent="1">
          <mxGeometry x="350" y="250" width="120" height="100" as="geometry"/>
        </mxCell>
        <mxCell id="id_3" value="Клієнт" style="rounded=0;whiteSpace=wrap;html=1;fillColor=#dae8fc;strokeColor=#6c8ebf;" vertex="1" parent="1">
          <mxGeometry x="80" y="80" width="100" height="60" as="geometry"/>
        </mxCell>
        <mxCell id="id_4" value="Адміністратор" style="rounded=0;whiteSpace=wrap;html=1;fillColor=#dae8fc;strokeColor=#6c8ebf;" vertex="1" parent="1">
          <mxGeometry x="600" y="80" width="100" height="60" as="geometry"/>
        </mxCell>
        <mxCell id="id_5" value="Постачальник" style="rounded=0;whiteSpace=wrap;html=1;fillColor=#dae8fc;strokeColor=#6c8ebf;" vertex="1" parent="1">
          <mxGeometry x="80" y="420" width="100" height="60" as="geometry"/>
        </mxCell>
        <mxCell id="id_6" value="Платіжна\nсистема" style="rounded=0;whiteSpace=wrap;html=1;fillColor=#dae8fc;strokeColor=#6c8ebf;" vertex="1" parent="1">
          <mxGeometry x="600" y="420" width="100" height="60" as="geometry"/>
        </mxCell>
        <mxCell id="id_7" value="D1: База даних\nкористувачів" style="shape=partialRectangle;whiteSpace=wrap;html=1;left=0;right=0;fillColor=#f5f5f5;strokeColor=#666666;" vertex="1" parent="1">
          <mxGeometry x="150" y="550" width="120" height="60" as="geometry"/>
        </mxCell>
        <mxCell id="id_8" value="D2: База даних\nтоварів" style="shape=partialRectangle;whiteSpace=wrap;html=1;left=0;right=0;fillColor=#f5f5f5;strokeColor=#666666;" vertex="1" parent="1">
          <mxGeometry x="300" y="550" width="120" height="60" as="geometry"/>
        </mxCell>
        <mxCell id="id_9" value="D3: База даних\nзамовлень" style="shape=partialRectangle;whiteSpace=wrap;html=1;left=0;right=0;fillColor=#f5f5f5;strokeColor=#666666;" vertex="1" parent="1">
          <mxGeometry x="450" y="550" width="120" height="60" as="geometry"/>
        </mxCell>
        <mxCell id="id_10" value="Запити клієнтів" style="endArrow=classic;html=1;rounded=0;" edge="1" parent="1" source="id_3" target="id_2">
          <mxGeometry width="50" height="50" relative="1" as="geometry"/>
        </mxCell>
        <mxCell id="id_11" value="Каталог товарів" style="endArrow=classic;html=1;rounded=0;" edge="1" parent="1" source="id_2" target="id_3">
          <mxGeometry width="50" height="50" relative="1" as="geometry"/>
        </mxCell>
        <mxCell id="id_12" value="Управління" style="endArrow=classic;html=1;rounded=0;" edge="1" parent="1" source="id_4" target="id_2">
          <mxGeometry width="50" height="50" relative="1" as="geometry"/>
        </mxCell>
        <mxCell id="id_13" value="Звіти" style="endArrow=classic;html=1;rounded=0;" edge="1" parent="1" source="id_2" target="id_4">
          <mxGeometry width="50" height="50" relative="1" as="geometry"/>
        </mxCell>
        <mxCell id="id_14" value="Дані користувачів" style="endArrow=classic;html=1;rounded=0;" edge="1" parent="1" source="id_2" target="id_7">
          <mxGeometry width="50" height="50" relative="1" as="geometry"/>
        </mxCell>
        <mxCell id="id_15" value="Дані товарів" style="endArrow=classic;html=1;rounded=0;" edge="1" parent="1" source="id_2" target="id_8">
          <mxGeometry width="50" height="50" relative="1" as="geometry"/>
        </mxCell>
        <mxCell id="id_16" value="Дані замовлень" style="endArrow=classic;html=1;rounded=0;" edge="1" parent="1" source="id_2" target="id_9">
          <mxGeometry width="50" height="50" relative="1" as="geometry"/>
        </mxCell>

      </root>
    </mxGraphModel>
  </diagram>
  <diagram id="activity" name="Діаграма діяльності - Процес оформлення замовлення">
    <mxGraphModel dx="1422" dy="827" grid="1" gridSize="10" guides="1" tooltips="1" connect="1" arrows="1" fold="1" page="1" pageScale="1" pageWidth="1169" pageHeight="827" math="0" shadow="0">
      <root>
        <mxCell id="0"/>
        <mxCell id="1" parent="0"/>
        <mxCell id="id_2" value="Діаграма діяльності - Процес оформлення замовлення\n\n(Детальний опис та структуру\nдив. у файлі DIAGRAMS_KOSYANCHUK.md)" style="rounded=1;whiteSpace=wrap;html=1;fillColor=#fff2cc;strokeColor=#d6b656;fontSize=14;fontStyle=1;" vertex="1" parent="1">
          <mxGeometry x="100" y="100" width="400" height="150" as="geometry"/>
        </mxCell>

      </root>
    </mxGraphModel>
  </diagram>
  <diagram id="sadt" name="SADT діаграма - Контекстна діаграма системи">
    <mxGraphModel dx="1422" dy="827" grid="1" gridSize="10" guides="1" tooltips="1" connect="1" arrows="1" fold="1" page="1" pageScale="1" pageWidth="1169" pageHeight="827" math="0" shadow="0">
      <root>
        <mxCell id="0"/>
        <mxCell id="1" parent="0"/>
        <mxCell id="id_2" value="SADT діаграма - Контекстна діаграма системи\n\n(Детальний опис та структуру\nдив. у файлі DIAGRAMS_KOSYANCHUK.md)" style="rounded=1;whiteSpace=wrap;html=1;fillColor=#fff2cc;strokeColor=#d6b656;fontSize=14;fontStyle=1;" vertex="1" parent="1">
          <mxGeometry x="100" y="100" width="400" height="150" as="geometry"/>
        </mxCell>

      </root>
    </mxGraphModel>
  </diagram>
  <diagram id="architecture" name="Архітектурна діаграма системи ТехноСвіт">
    <mxGraphModel dx="1422" dy="827" grid="1" gridSize="10" guides="1" tooltips="1" connect="1" arrows="1" fold="1" page="1" pageScale="1" pageWidth="1169" pageHeight="827" math="0" shadow="0">
      <root>
        <mxCell id="0"/>
        <mxCell id="1" parent="0"/>
        <mxCell id="id_2" value="Архітектурна діаграма системи ТехноСвіт\n\n(Детальний опис та структуру\nдив. у файлі DIAGRAMS_KOSYANCHUK.md)" style="rounded=1;whiteSpace=wrap;html=1;fillColor=#fff2cc;strokeColor=#d6b656;fontSize=14;fontStyle=1;" vertex="1" parent="1">
          <mxGeometry x="100" y="100" width="400" height="150" as="geometry"/>
        </mxCell>

      </root>
    </mxGraphModel>
  </diagram>
</mxfile>